<svg width="128" height="128" viewBox="0 0 128 128" fill="none" xmlns="http://www.w3.org/2000/svg">
<path d="M109 64.4979C108.999 71.1781 108.851 77.8612 108.476 84.5313C108.101 91.1945 107.707 98.0533 106.102 104.557C106.001 104.966 105.892 105.373 105.774 105.777C105.412 107.012 104.617 110.098 102.831 109.989C101.212 109.89 100.1 107.491 99.4799 106.289C97.2909 102.049 95.8697 97.3802 94.4523 92.8409C88.5817 74.0399 84.4208 54.5951 77.0055 36.304C76.4506 34.9353 75.8716 33.5761 75.2582 32.2326C74.7683 31.1596 74.2564 30.0964 73.7139 29.049C73.2903 28.2312 72.8479 27.423 72.3802 26.6297C70.4457 23.3489 67.0922 18.2337 62.5711 19.0966C60.3602 19.5186 58.5953 21.2316 57.2266 22.9142C54.2667 26.5531 52.2714 30.9889 50.4818 35.2883C43.3712 52.372 39.2553 70.6115 33.996 88.3082C32.2466 94.1946 30.5542 100.283 27.8308 105.812C27.6619 106.155 27.4866 106.495 27.3025 106.83C26.7134 107.902 25.3463 110.518 23.7144 109.909C22.0154 109.275 21.4257 106.344 21.0424 104.85C19.6921 99.5864 19.2533 94.0569 18.8593 88.6547C17.7444 73.3664 17.7371 57.8949 18.7057 42.5986C18.9972 37.9961 19.3825 33.3843 20.1062 28.8272C20.5296 26.1616 20.9765 23.2946 22.1789 20.8471C22.3556 20.4873 22.5563 20.1354 22.8043 19.8196C24.6119 17.5183 26.6119 20.8765 27.4075 22.3592C30.1386 27.4486 31.7414 33.2219 33.4065 38.7215C38.9216 56.9371 43.0687 75.7395 50.3432 93.3728C52.1703 97.8017 54.2064 102.39 57.2633 106.126C58.65 107.822 60.451 109.55 62.6991 109.922C67.1632 110.661 70.454 105.63 72.3719 102.38C72.8397 101.587 73.2821 100.78 73.7057 99.9626C74.2483 98.9159 74.7602 97.8534 75.2501 96.781C75.8635 95.4381 76.4425 94.0797 76.9974 92.7116C84.416 74.4218 88.577 54.9761 94.4462 36.1746C95.8697 31.6144 97.2952 26.9187 99.5025 22.6627C100.121 21.4695 101.223 19.1102 102.827 19.0072C104.628 18.8916 105.426 22.0241 105.787 23.2652C105.906 23.6716 106.014 24.081 106.115 24.492C107.714 31.013 108.109 37.8849 108.481 44.5643C108.851 51.1929 108.998 57.8341 109 64.4726" stroke="#00E494" stroke-width="8" stroke-linecap="square" stroke-linejoin="round"/>
</svg>
